<?xml version="1.0" encoding="iso-8859-1"?>
<!-- Uploaded to: SVG Repo, www.svgrepo.com, Generator: SVG Repo Mixer Tools -->
<svg fill="#000000" height="800px" width="800px" version="1.1" id="Layer_1" xmlns="http://www.w3.org/2000/svg" xmlns:xlink="http://www.w3.org/1999/xlink" 
	 viewBox="0 0 512.006 512.006" xml:space="preserve">
<g>
	<g>
		<g>
			<path d="M235.111,297.774l-71.27,71.279c-3.337,3.328-3.337,8.73,0,12.066c1.664,1.664,3.849,2.5,6.033,2.5
				c2.185,0,4.369-0.836,6.033-2.5l71.27-71.279c3.337-3.336,3.337-8.73,0-12.066C243.841,294.438,238.448,294.438,235.111,297.774z
				"/>
			<path d="M511.683,74.566c-1.468-13.235-7.927-26.163-18.185-36.429c-10.257-10.257-23.194-16.717-36.429-18.176
				c-13.952-1.553-26.581,2.534-35.558,11.52c-9.481,9.481-13.406,23.023-11.093,37.734L301.686,177.948
				c-0.009,0-0.009,0.009-0.009,0.009L2.491,477.809c-2.534,2.543-3.209,6.4-1.681,9.651c1.408,3.012,4.437,4.907,7.723,4.907
				c0.256,0,0.512-0.009,0.768-0.034c95.966-8.721,186.539-51.26,255.053-119.774l115.968-115.977c1.604-1.596,2.5-3.763,2.5-6.033
				c0-2.27-0.896-4.429-2.5-6.033l-20.591-20.591l102.69-102.699c14.754,2.295,28.254-1.621,37.734-11.102
				C509.14,101.139,513.236,88.518,511.683,74.566z M362.222,250.549L252.278,360.493C192.4,420.38,114.943,459.565,32.033,472.356
				l275.695-276.301l12.962,12.971l20.941,20.932L362.222,250.549z M355.199,185.858c-4.71,0-8.533-3.823-8.533-8.533
				s3.823-8.533,8.533-8.533s8.533,3.823,8.533,8.533S359.909,185.858,355.199,185.858z M434.465,110.125
				c-3.337,3.337-8.738,3.337-12.066,0c-3.337-3.328-3.337-8.738,0-12.066c3.328-3.337,8.73-3.337,12.066,0
				C437.802,101.386,437.802,106.797,434.465,110.125z"/>
		</g>
	</g>
</g>
</svg>