<?xml version="1.0" encoding="iso-8859-1"?>
<!-- Uploaded to: SVG Repo, www.svgrepo.com, Generator: SVG Repo Mixer Tools -->
<svg fill="#000000" height="800px" width="800px" version="1.1" id="Layer_1" xmlns="http://www.w3.org/2000/svg" xmlns:xlink="http://www.w3.org/1999/xlink" 
	 viewBox="0 0 511.908 511.908" xml:space="preserve">
<g>
	<g>
		<path d="M481.182,51.143l-23.091-23.091c-3.337-3.328-8.73-3.328-12.066,0L253.555,220.521L2.411,471.785
			c-0.666,0.666-1.186,1.434-1.596,2.244c-0.077,0.154-0.094,0.333-0.162,0.503c-0.324,0.751-0.538,1.536-0.631,2.355
			c-0.034,0.316-0.017,0.631-0.017,0.956c0,0.734,0.102,1.442,0.299,2.167c0.051,0.205,0.009,0.41,0.077,0.606
			c0.051,0.145,0.154,0.256,0.213,0.393c0.051,0.137,0.06,0.29,0.119,0.427c0.154,0.324,0.393,0.589,0.58,0.887
			c0.196,0.299,0.358,0.614,0.589,0.887c0.324,0.401,0.708,0.725,1.101,1.058c0.247,0.205,0.461,0.444,0.734,0.623
			c0.469,0.316,0.998,0.538,1.527,0.751c0.239,0.102,0.452,0.247,0.708,0.324c0.794,0.247,1.63,0.384,2.492,0.384
			c0.247,0,0.512-0.009,0.777-0.034c112.717-10.248,213.683-57.045,291.968-135.33l41.421-41.412c3.328-3.337,3.328-8.738,0-12.066
			l-17.314-17.314c15.753-6.562,30.31-14.669,43.315-24.294c0.137-0.111,0.273-0.222,0.41-0.333
			c2.475-2.082,60.971-51.567,93.85-106.812c0.188-0.324,0.427-0.828,0.572-1.169c0.597-1.399,6.579-13.662,29.884-9.011
			c2.551,0.546,5.231-0.171,7.236-1.894c1.092-0.939,10.692-9.66,11.315-26.3C512.559,92.129,502.234,72.204,481.182,51.143z
			 M259.588,238.621l34.244,34.244c-24.832,25.412-128.828,127.258-249.976,181.598L259.588,238.621z M289.122,338.922
			c-59.307,59.307-132.181,99.78-213.453,119.211c112.572-57.19,206.046-148.497,230.229-173.201l18.611,18.611L289.122,338.922z
			 M336.951,221.819c-7.057,0-12.774-5.717-12.774-12.774s5.717-12.774,12.774-12.774s12.774,5.717,12.774,12.774
			S344.009,221.819,336.951,221.819z M422.285,136.443c-7.057,0-12.774-5.717-12.774-12.774s5.717-12.783,12.774-12.783
			c7.057,0,12.774,5.726,12.774,12.783S429.342,136.443,422.285,136.443z"/>
	</g>
</g>
</svg>