<?xml version="1.0" encoding="iso-8859-1"?>
<!-- Uploaded to: SVG Repo, www.svgrepo.com, Generator: SVG Repo Mixer Tools -->
<svg fill="#000000" height="800px" width="800px" version="1.1" id="Layer_1" xmlns="http://www.w3.org/2000/svg" xmlns:xlink="http://www.w3.org/1999/xlink" 
	 viewBox="0 0 506.275 506.275" xml:space="preserve">
<g>
	<g>
		<g>
			<circle cx="352.242" cy="120.341" r="9.532"/>
			<circle cx="406.157" cy="66.427" r="9.532"/>
			<path d="M459.366,13.219c-8.772-8.772-20.42-13.551-32.828-13.201c-12.399,0.256-23.851,5.427-32.256,14.558l-129.05,140.271
				L36.198,383.881c-1.596,1.604-2.5,3.772-2.5,6.033c0,2.27,0.905,4.437,2.5,6.033l74.837,74.837l241.203-241.203l-28.1-28.109
				l133.871-123.17c9.131-8.405,14.302-19.849,14.558-32.256C472.823,33.648,468.138,21.991,459.366,13.219z M96.145,399.446
				c-5.257,0-9.523-4.267-9.523-9.532s4.267-9.532,9.523-9.532c5.265,0,9.532,4.267,9.532,9.532S101.41,399.446,96.145,399.446z
				 M446.455,65.742l-134.4,123.648l-28.86-28.86L406.843,26.121c5.222-5.666,12.339-8.883,20.053-9.037
				c7.748-0.316,14.95,2.748,20.403,8.201c5.444,5.444,8.363,12.698,8.201,20.403C455.347,53.403,452.13,60.528,446.455,65.742z"/>
			<path d="M364.308,241.648L123.105,482.851l20.924,20.924c1.673,1.664,3.849,2.5,6.033,2.5c2.185,0,4.369-0.836,6.033-2.5
				l229.137-229.137c1.604-1.596,2.5-3.763,2.5-6.033c0-2.261-0.896-4.429-2.5-6.033L364.308,241.648z"/>
		</g>
	</g>
</g>
</svg>